<svg width="32" height="32" viewBox="0 0 32 32" fill="none" xmlns="http://www.w3.org/2000/svg">
<path d="M15.2875 8.92502L17.7625 6.45002C18.8104 5.49493 20.186 4.98032 21.6034 5.01314C23.0209 5.04595 24.3712 5.62367 25.3738 6.62623C26.3763 7.6288 26.9541 8.97911 26.9869 10.3966C27.0197 11.814 26.5051 13.1896 25.55 14.2375L22.0125 17.7625C21.5027 18.2743 20.8968 18.6803 20.2297 18.9574C19.5626 19.2344 18.8473 19.377 18.125 19.377C17.4026 19.377 16.6874 19.2344 16.0203 18.9574C15.3532 18.6803 14.7473 18.2743 14.2375 17.7625" stroke="#08012A" stroke-width="2" stroke-linecap="round" stroke-linejoin="round"/>
<path d="M16.7125 23.075L14.2375 25.55C13.1896 26.5051 11.814 27.0197 10.3966 26.9869C8.97911 26.9541 7.6288 26.3764 6.62623 25.3738C5.62367 24.3712 5.04595 23.0209 5.01314 21.6035C4.98032 20.186 5.49493 18.8104 6.45002 17.7625L9.98752 14.2375C10.4974 13.7258 11.1032 13.3197 11.7703 13.0427C12.4374 12.7656 13.1527 12.623 13.875 12.623C14.5974 12.623 15.3126 12.7656 15.9797 13.0427C16.6469 13.3197 17.2527 13.7258 17.7625 14.2375" stroke="#78D98A" stroke-width="2" stroke-linecap="round" stroke-linejoin="round"/>
</svg>
