<svg width="238" height="434" viewBox="0 0 238 434" fill="none" xmlns="http://www.w3.org/2000/svg">
<path d="M18.3869 22.3131C23.8756 32.4923 35.5248 36.862 35.5248 36.862C35.5248 36.862 38.2748 24.728 32.7861 14.5489C27.2973 4.36969 15.6482 0 15.6482 0C15.6482 0 12.8981 12.134 18.3869 22.3131Z" fill="#2F2E41"/>
<path d="M22.1595 18.9644C32.069 24.9263 35.8854 36.7682 35.8854 36.7682C35.8854 36.7682 23.6354 38.944 13.7259 32.9822C3.81646 27.0203 0 15.1784 0 15.1784C0 15.1784 12.25 13.0026 22.1595 18.9644Z" fill="#78D98A"/>
<path d="M214.632 45.6255H33.564V148.967H214.632V45.6255Z" fill="#F1F1F1"/>
<path d="M147.989 101.749C147.619 101.982 147.235 102.199 146.838 102.4C143.612 104.022 139.874 104.299 136.444 103.169C133.014 102.039 130.173 99.5941 128.543 96.3716L125.605 90.5462L127.577 89.5521L130.515 95.3775C131.189 96.7165 132.121 97.9095 133.256 98.8883C134.392 99.8671 135.709 100.613 137.133 101.082C138.557 101.552 140.059 101.736 141.554 101.625C143.049 101.514 144.508 101.109 145.847 100.434C147.185 99.7586 148.378 98.8264 149.356 97.6902C150.334 96.5541 151.079 95.2364 151.548 93.8123C152.016 92.3882 152.2 90.8858 152.088 89.3907C151.976 87.8957 151.57 86.4374 150.894 85.0991L138.557 60.6357C137.882 59.2975 136.95 58.1054 135.814 57.1274C134.679 56.1494 133.362 55.4046 131.938 54.9356C130.515 54.4666 129.013 54.2826 127.518 54.394C126.024 54.5054 124.566 54.9101 123.228 55.585C121.89 56.2599 120.698 57.1917 119.72 58.3273C118.741 59.4629 117.997 60.78 117.528 62.2035C117.059 63.6269 116.875 65.1288 116.986 66.6233C117.098 68.1179 117.502 69.5759 118.177 70.914L122.545 79.5753L120.573 80.5694L116.205 71.9081C114.58 68.6828 114.302 64.9439 115.433 61.5138C116.564 58.0837 119.011 55.2431 122.235 53.6168C125.46 51.9904 129.199 51.7115 132.63 52.8413C136.06 53.9711 138.901 56.4172 140.529 59.6415L152.866 84.105C154.39 87.1264 154.734 90.6066 153.833 93.868C152.931 97.1294 150.848 99.9386 147.989 101.749V101.749Z" fill="#3F3D56"/>
<path d="M149.183 131.944C148.817 132.175 148.437 132.389 148.044 132.588C144.818 134.21 141.08 134.487 137.65 133.357C134.22 132.227 131.379 129.782 129.749 126.56L117.412 102.096C115.785 98.8709 115.506 95.1313 116.637 91.7003C117.767 88.2693 120.215 85.428 123.44 83.8013C126.666 82.1747 130.405 81.896 133.836 83.0265C137.267 84.1571 140.108 86.6043 141.735 89.8297L144.976 96.2563L143.004 97.2504L139.763 90.8238C139.088 89.4857 138.156 88.2936 137.021 87.3155C135.885 86.3375 134.568 85.5928 133.145 85.1238C131.721 84.6548 130.219 84.4707 128.725 84.5822C127.23 84.6936 125.772 85.0983 124.434 85.7732C123.096 86.4481 121.904 87.3799 120.926 88.5155C119.948 89.6511 119.203 90.9682 118.734 92.3916C118.265 93.8151 118.081 95.3169 118.193 96.8115C118.304 98.306 118.709 99.764 119.384 101.102L131.721 125.566C132.395 126.905 133.327 128.098 134.463 129.076C135.598 130.055 136.916 130.801 138.339 131.27C139.763 131.74 141.266 131.924 142.761 131.813C144.256 131.702 145.714 131.297 147.053 130.622C148.392 129.947 149.584 129.015 150.562 127.878C151.54 126.742 152.285 125.425 152.754 124C153.223 122.576 153.406 121.074 153.294 119.579C153.182 118.084 152.777 116.626 152.101 115.287L147.854 106.867L149.826 105.873L154.073 114.293C155.593 117.318 155.935 120.799 155.031 124.062C154.127 127.324 152.043 130.133 149.183 131.944V131.944Z" fill="#3F3D56"/>
<path d="M237.155 149.85H33.1223V36.3511H237.155V149.85ZM34.0056 148.967H236.272V37.2343H34.0056V148.967Z" fill="#2F2E41"/>
<path d="M229.941 399.449C229.941 410.181 204.434 433.455 172.97 433.455C141.506 433.455 116 410.181 116 399.449C116 388.717 141.506 394.591 172.97 394.591C204.434 394.591 229.941 388.717 229.941 399.449Z" fill="#3F3D56"/>
<path opacity="0.1" d="M229.941 399.449C229.941 410.181 204.434 433.455 172.97 433.455C141.506 433.455 116 410.181 116 399.449C116 388.717 141.506 394.591 172.97 394.591C204.434 394.591 229.941 388.717 229.941 399.449Z" fill="#F2F2F2"/>
<path d="M172.97 418.881C204.434 418.881 229.941 410.181 229.941 399.449C229.941 388.717 204.434 380.018 172.97 380.018C141.506 380.018 116 388.717 116 399.449C116 410.181 141.506 418.881 172.97 418.881Z" fill="#F2F2F2"/>
<path d="M193.064 158.319C202.699 158.319 210.509 151.003 210.509 141.979C210.509 132.954 202.699 125.638 193.064 125.638C183.43 125.638 175.62 132.954 175.62 141.979C175.62 151.003 183.43 158.319 193.064 158.319Z" fill="#2F2E41"/>
<path d="M142.277 243.774L137.861 249.957C137.861 249.957 116.662 254.374 124.612 260.998C132.561 267.622 144.044 254.815 144.044 254.815L150.226 246.866L142.277 243.774Z" fill="#FFB8B8"/>
<path d="M165.242 173.555C165.242 173.555 159.501 173.555 158.176 181.505C156.851 189.454 155.526 215.952 155.526 215.952C155.526 215.952 136.977 240.242 140.069 243.333C143.16 246.424 146.693 252.166 148.901 251.282C151.11 250.399 170.1 224.343 170.1 224.343L165.242 173.555Z" fill="#78D98A"/>
<path opacity="0.1" d="M165.242 173.555C165.242 173.555 159.501 173.555 158.176 181.505C156.851 189.454 155.526 215.952 155.526 215.952C155.526 215.952 136.977 240.242 140.069 243.333C143.16 246.424 146.693 252.166 148.901 251.282C151.11 250.399 170.1 224.343 170.1 224.343L165.242 173.555Z" fill="black"/>
<path d="M182.907 151.032C182.907 151.032 182.465 168.256 177.166 169.139C171.866 170.022 173.633 175.764 173.633 175.764C173.633 175.764 190.856 185.921 202.339 175.764L204.547 170.464C204.547 170.464 196.598 164.723 200.131 156.773L182.907 151.032Z" fill="#FFB8B8"/>
<path d="M153.318 257.023C153.318 257.023 127.262 305.603 136.977 320.618C146.693 335.634 161.267 366.548 163.475 366.548C165.683 366.548 178.049 360.365 177.166 356.39C176.283 352.416 163.034 322.826 159.501 320.177C155.968 317.527 157.734 310.461 158.176 310.019C158.617 309.577 173.191 286.171 173.191 286.171C173.191 286.171 172.75 323.268 174.516 329.009C176.283 334.75 174.074 375.822 176.283 377.588C178.491 379.355 188.648 382.446 190.415 379.797C192.181 377.147 197.481 336.958 193.948 327.684L200.572 264.09L153.318 257.023Z" fill="#2F2E41"/>
<path d="M177.166 374.939L166.125 395.254C166.125 395.254 150.226 406.736 161.267 408.503C172.308 410.269 178.932 405.853 178.932 405.853L188.648 398.787V378.472L177.166 374.939Z" fill="#2F2E41"/>
<path d="M162.15 363.457L167.892 377.147C167.892 377.147 170.1 382.888 167.892 384.213C165.683 385.538 159.501 393.487 163.475 394.371C164.275 394.527 165.087 394.608 165.902 394.612C169.212 394.668 172.499 394.053 175.565 392.805C178.631 391.558 181.413 389.703 183.743 387.352L187.323 383.772C187.323 383.772 175.059 355.53 175.229 355.739C175.399 355.949 162.15 363.457 162.15 363.457Z" fill="#2F2E41"/>
<path d="M193.948 161.631C202.24 161.631 208.963 154.909 208.963 146.616C208.963 138.323 202.24 131.601 193.948 131.601C185.655 131.601 178.932 138.323 178.932 146.616C178.932 154.909 185.655 161.631 193.948 161.631Z" fill="#FFB8B8"/>
<path d="M202.56 167.593L197.922 172.23C197.922 172.23 183.79 177.53 177.166 172.23C177.166 172.23 179.595 167.152 179.595 167.593C179.595 168.035 160.384 170.906 158.617 178.855C156.851 186.804 159.942 200.495 159.942 200.495C159.942 200.495 147.577 258.79 152.434 260.115C157.292 261.44 202.78 272.481 202.339 264.09C201.897 255.699 205.872 221.251 205.872 221.251L221.329 191.662C221.329 191.662 219.121 181.946 213.821 178.855C208.522 175.764 202.56 167.593 202.56 167.593Z" fill="#78D98A"/>
<path d="M182.907 253.932L177.166 257.465C177.166 257.465 155.084 272.481 166.567 275.13C178.049 277.78 184.673 264.531 184.673 264.531L189.09 259.232L182.907 253.932Z" fill="#FFB8B8"/>
<path opacity="0.1" d="M215.588 189.012L219.562 192.987C219.562 192.987 222.212 230.084 216.912 237.592C211.613 245.099 187.323 265.414 185.998 264.09C184.673 262.765 176.282 256.14 178.049 255.257C179.816 254.374 203.303 229.833 203.303 229.833L201.455 195.637L215.588 189.012Z" fill="black"/>
<path d="M217.354 187.688L221.329 191.662C221.329 191.662 223.979 228.759 218.679 236.267C213.379 243.775 189.09 264.09 187.765 262.765C186.44 261.44 178.049 254.815 179.815 253.932C181.582 253.049 205.069 228.508 205.069 228.508L203.222 194.312L217.354 187.688Z" fill="#78D98A"/>
<path d="M187.738 125.288C187.738 125.288 182.633 123.431 175.673 127.376L179.385 128.304C179.385 128.304 173.817 128.768 173.121 136.192H175.673C175.673 136.192 174.049 142.688 175.673 144.544L176.717 142.572L179.733 148.604L180.429 145.588L181.821 146.052L182.749 141.18C182.749 141.18 185.07 144.66 186.926 144.892V141.876C186.926 141.876 192.03 147.676 193.654 147.444L191.334 144.196L194.582 144.892L193.19 142.572L201.542 144.892L199.686 142.572L205.486 144.428L208.27 145.588C208.27 145.588 212.214 136.54 206.646 130.276C201.078 124.011 192.958 122.619 187.738 125.288Z" fill="#2F2E41"/>
</svg>
