<svg width="525" height="507" viewBox="0 0 525 507" fill="none" xmlns="http://www.w3.org/2000/svg">
<g clip-path="url(#clip0_7_332)">
<path d="M119.375 65.6351C137.463 65.6351 152.126 50.9422 152.126 32.8176C152.126 14.6929 137.463 0 119.375 0C101.288 0 86.6249 14.6929 86.6249 32.8176C86.6249 50.9422 101.288 65.6351 119.375 65.6351Z" fill="#78D98A"/>
<path d="M156.229 242.069C143.431 242.069 131.053 237.489 121.326 229.154C118.082 226.371 114.624 221.533 111.051 214.774C108.77 210.421 107.493 205.61 107.313 200.697C107.133 195.783 108.054 190.892 110.01 186.383C108.125 188.304 106.04 190.018 103.791 191.494L102.654 192.252L102.588 190.886C102.545 189.998 102.523 189.112 102.523 188.254C102.523 183.198 106.34 178.068 104.58 173.394C97.1615 153.697 73.6333 134.122 107.733 103.638C110.887 100.818 106.673 95.18 106.673 90.9135C106.673 49.1004 152.012 -13.6228 182.363 15.083C200.08 31.8389 236.991 43.742 254.224 67.0486L254.453 67.7391L253.78 68.0118C250.337 69.4619 246.71 70.4284 243.003 70.8841C246.955 71.6918 250.989 72.0304 255.02 71.8929L255.645 71.871L255.797 72.4799C257.297 78.5092 258.055 84.6997 258.054 90.9135L258.051 91.5852C258.037 96.3048 259.016 100.974 260.924 105.29C262.832 109.605 265.626 113.469 269.124 116.629C274.649 121.677 279.064 127.824 282.088 134.676C285.111 141.529 286.677 148.938 286.685 156.43C286.685 165.294 280.672 176.93 275.629 185.131C274.35 187.219 272.617 188.991 270.557 190.313C268.498 191.634 266.167 192.472 263.739 192.762C261.439 193.052 259.104 192.833 256.898 192.119C254.692 191.405 252.67 190.214 250.974 188.63C253.362 193.44 256.473 197.853 260.199 201.716L260.887 202.426L260.032 202.925C251.821 207.723 242.485 210.25 232.98 210.246L232.423 210.244C217.992 210.244 204.294 215.847 194.842 225.615C189.823 230.796 183.822 234.92 177.192 237.745C170.561 240.571 163.434 242.041 156.229 242.069V242.069Z" fill="#E6E6E6"/>
<path d="M137.291 326.369C137.058 326.369 136.834 326.285 136.658 326.132C136.483 325.979 136.368 325.768 136.336 325.538C136.295 325.249 132.275 296.202 135.885 257.598C139.219 221.946 149.924 170.595 181.994 128.421C182.071 128.32 182.167 128.235 182.276 128.171C182.386 128.107 182.507 128.066 182.633 128.049C182.758 128.032 182.886 128.04 183.009 128.072C183.131 128.105 183.246 128.161 183.347 128.238C183.448 128.315 183.533 128.411 183.597 128.521C183.661 128.631 183.702 128.752 183.719 128.878C183.736 129.004 183.728 129.132 183.696 129.255C183.663 129.378 183.607 129.493 183.53 129.595C151.738 171.404 141.118 222.379 137.808 257.779C134.22 296.158 138.207 324.978 138.248 325.265C138.267 325.402 138.257 325.542 138.218 325.675C138.179 325.808 138.111 325.931 138.021 326.036C137.93 326.14 137.818 326.224 137.692 326.282C137.566 326.339 137.429 326.369 137.291 326.369H137.291Z" fill="#CCCCCC"/>
<path d="M166.573 186.842C166.369 186.843 166.17 186.778 166.005 186.658C165.84 186.538 165.717 186.368 165.654 186.174C165.59 185.98 165.59 185.77 165.653 185.576C165.716 185.381 165.839 185.212 166.004 185.092C175.142 178.894 185.014 173.858 195.392 170.101C211.605 164.153 236.26 158.761 261.642 166.856C261.763 166.894 261.875 166.956 261.972 167.038C262.069 167.12 262.149 167.22 262.207 167.333C262.266 167.446 262.301 167.569 262.312 167.696C262.323 167.823 262.308 167.95 262.27 168.071C262.231 168.192 262.169 168.305 262.088 168.402C262.006 168.499 261.906 168.579 261.793 168.637C261.681 168.696 261.558 168.731 261.431 168.742C261.305 168.753 261.178 168.738 261.057 168.7C236.195 160.771 211.986 166.075 196.056 171.919C185.845 175.612 176.131 180.562 167.14 186.657C166.975 186.778 166.776 186.843 166.573 186.842V186.842Z" fill="#CCCCCC"/>
<path d="M121.706 72.5364C121.691 72.3325 121.741 72.1292 121.848 71.9555C121.956 71.7818 122.116 71.6467 122.305 71.5696C122.494 71.4925 122.702 71.4773 122.9 71.5263C123.098 71.5752 123.276 71.6858 123.407 71.8421C130.235 80.5286 135.958 90.0321 140.445 100.134C147.533 115.91 154.676 140.163 148.446 166.114C148.417 166.238 148.363 166.355 148.288 166.457C148.214 166.56 148.12 166.647 148.012 166.714C147.903 166.78 147.783 166.825 147.658 166.845C147.533 166.864 147.405 166.859 147.281 166.83C147.158 166.8 147.042 166.746 146.939 166.671C146.836 166.596 146.749 166.502 146.683 166.394C146.617 166.285 146.573 166.165 146.553 166.039C146.533 165.914 146.538 165.785 146.568 165.662C152.669 140.242 145.648 116.429 138.683 100.928C134.272 90.9889 128.645 81.6376 121.93 73.0898C121.799 72.9339 121.72 72.7401 121.706 72.5364Z" fill="#CCCCCC"/>
<path d="M357.339 385.175C290.909 385.175 239.919 381.672 204.528 367.623C118.326 333.406 89.1021 319.196 88.8168 319.057L89.3984 317.864C89.6831 318.003 118.878 332.197 205.015 366.388C256.108 386.67 340.172 384.861 456.523 382.357C478.357 381.887 500.935 381.401 524.979 381.014L525 382.342C500.96 382.729 478.384 383.215 456.552 383.685C420.357 384.463 387.278 385.175 357.339 385.175Z" fill="#CACACA"/>
<path d="M76.9879 472.289L76.051 471.35C108.237 439.098 120.64 426.768 123.268 424.159L28.4291 355.513L29.2049 354.436L125.312 424.001L124.755 424.552C124.649 424.657 113.663 435.539 76.9879 472.289Z" fill="#CACACA"/>
<path d="M124.742 507L123.838 506.029C126.807 503.252 196.643 438.089 210.251 438.089H210.294L523.074 441.281L523.061 442.608L210.281 439.417H210.242C197.166 439.417 125.465 506.323 124.742 507Z" fill="#CACACA"/>
<path d="M516.442 405.43H436.108V406.758H516.442V405.43Z" fill="#CACACA"/>
<path d="M366.047 405.43H285.713V406.758H366.047V405.43Z" fill="#CACACA"/>
<path d="M281.905 298.439H235.528V286.698H252.754C253.808 286.698 254.819 286.279 255.564 285.532C256.31 284.785 256.729 283.772 256.729 282.715V269.996C256.729 268.94 256.31 267.927 255.564 267.18C254.819 266.433 253.808 266.013 252.754 266.013H235.528V262.03C235.528 260.621 234.969 259.27 233.975 258.274C232.981 257.278 231.633 256.718 230.227 256.718C228.822 256.718 227.473 257.278 226.479 258.274C225.485 259.27 224.927 260.621 224.927 262.03V266.013H161.264C160.441 266.013 159.638 266.269 158.966 266.745L150.004 273.105C149.486 273.473 149.063 273.96 148.771 274.526C148.479 275.091 148.326 275.719 148.326 276.356C148.326 276.992 148.479 277.62 148.771 278.186C149.063 278.751 149.486 279.238 150.004 279.606L158.966 285.966C159.638 286.443 160.441 286.698 161.264 286.698H224.927V298.439H178.55C177.495 298.439 176.484 298.859 175.739 299.606C174.993 300.353 174.574 301.366 174.574 302.422V315.141C174.574 316.197 174.993 317.211 175.739 317.958C176.484 318.705 177.495 319.124 178.55 319.124H224.927V362.941C224.927 364.35 225.485 365.701 226.479 366.697C227.473 367.693 228.822 368.252 230.227 368.252C231.633 368.252 232.981 367.693 233.975 366.697C234.969 365.701 235.528 364.35 235.528 362.941V319.124H281.905C282.959 319.124 283.97 318.705 284.716 317.958C285.461 317.211 285.88 316.197 285.88 315.141V302.422C285.88 301.899 285.777 301.381 285.578 300.898C285.378 300.415 285.085 299.975 284.716 299.606C284.347 299.236 283.909 298.942 283.426 298.742C282.944 298.542 282.427 298.439 281.905 298.439Z" fill="#3F3D56"/>
<path d="M203.726 276.967H170.599C169.984 276.967 169.394 276.722 168.96 276.287C168.525 275.851 168.28 275.26 168.28 274.643C168.28 274.027 168.525 273.436 168.96 273C169.394 272.565 169.984 272.32 170.599 272.32H203.726C204.341 272.32 204.931 272.565 205.366 273C205.801 273.436 206.045 274.027 206.045 274.643C206.045 275.26 205.801 275.851 205.366 276.287C204.931 276.722 204.341 276.967 203.726 276.967V276.967Z" fill="#78D98A"/>
<path d="M244.803 310.826H211.676C211.061 310.826 210.472 310.581 210.037 310.145C209.602 309.709 209.358 309.118 209.358 308.502C209.358 307.886 209.602 307.295 210.037 306.859C210.472 306.423 211.061 306.178 211.676 306.178H244.803C245.418 306.178 246.008 306.423 246.443 306.859C246.878 307.295 247.122 307.886 247.122 308.502C247.122 309.118 246.878 309.709 246.443 310.145C246.008 310.581 245.418 310.826 244.803 310.826V310.826Z" fill="white"/>
<path d="M85.7949 364.828V353.088H103.021C104.075 353.088 105.086 352.668 105.832 351.921C106.577 351.174 106.996 350.161 106.996 349.104V336.385C106.996 335.329 106.577 334.316 105.832 333.569C105.086 332.822 104.075 332.402 103.021 332.402H85.7949V328.601C85.8127 327.23 85.3126 325.903 84.395 324.887C83.4774 323.87 82.2102 323.239 80.8475 323.119C80.1233 323.071 79.397 323.172 78.7134 323.416C78.0299 323.661 77.4037 324.043 76.8737 324.54C76.3437 325.037 75.9212 325.638 75.6323 326.305C75.3435 326.972 75.1944 327.691 75.1944 328.419V332.402L3.89994 365.828C3.60839 365.965 3.34779 366.159 3.13424 366.4C2.92069 366.641 2.75872 366.924 2.65835 367.23C2.09679 368.944 0.917142 372.602 0.114793 375.487C-0.014065 375.955 -0.0313159 376.447 0.0644382 376.924C0.160192 377.4 0.366275 377.847 0.666053 378.228C0.96583 378.61 1.35091 378.916 1.79026 379.121C2.2296 379.326 2.71089 379.425 3.19533 379.409C7.78987 379.268 10.813 379.053 12.9111 378.995C13.3158 378.983 13.7143 378.892 14.0837 378.726L75.1944 353.088V385.513V429.148C75.1767 430.519 75.6768 431.846 76.5944 432.862C77.5119 433.879 78.7791 434.51 80.1419 434.63C80.866 434.678 81.5924 434.577 82.2759 434.333C82.9595 434.088 83.5856 433.706 84.1156 433.209C84.6456 432.712 85.0681 432.111 85.357 431.444C85.6459 430.777 85.7949 430.058 85.795 429.33V364.828H85.7949Z" fill="#3F3D56"/>
<path d="M58.1304 353.293L27.9021 366.872C27.3409 367.124 26.7027 367.142 26.128 366.923C25.5533 366.703 25.0891 366.264 24.8375 365.702C24.586 365.139 24.5676 364.5 24.7866 363.924C25.0055 363.348 25.4438 362.883 26.0049 362.631L56.2333 349.052C56.7945 348.8 57.4326 348.782 58.0073 349.001C58.5821 349.221 59.0463 349.66 59.2978 350.222C59.5494 350.784 59.5677 351.424 59.3488 352C59.1299 352.576 58.6916 353.041 58.1304 353.293V353.293Z" fill="white"/>
<path d="M463.235 245.125L449.421 246.529C448.794 253.642 450.031 260.795 453.01 267.281L448.865 305.967L448.926 305.966C448.518 306.673 448.31 307.477 448.324 308.294C448.338 309.11 448.574 309.908 449.006 310.6C449.438 311.292 450.051 311.853 450.778 312.222C451.505 312.592 452.318 312.755 453.131 312.696C453.944 312.637 454.725 312.357 455.391 311.886C456.056 311.415 456.581 310.771 456.909 310.023C457.237 309.275 457.355 308.452 457.251 307.642C457.147 306.832 456.824 306.066 456.318 305.426L465.531 270.908L463.235 245.125Z" fill="#A0616A"/>
<path d="M420.745 414.939L414.875 413.925L414.3 396.172L424.646 392.251L420.745 414.939Z" fill="#A0616A"/>
<path d="M419.897 421.111L401.846 417.995L401.885 417.766C402.207 415.899 403.255 414.236 404.799 413.143C406.344 412.05 408.258 411.617 410.122 411.938L410.122 411.938L413.85 410.001L419.571 413.57L421.147 413.842L419.897 421.111Z" fill="#2F2E41"/>
<path d="M479.635 402.647L474.552 405.757L460.158 387.59L467.661 382.999L479.635 402.647Z" fill="#A0616A"/>
<path d="M483.053 407.851L467.421 417.418L467.3 417.219C466.314 415.602 466.01 413.659 466.454 411.818C466.899 409.976 468.055 408.387 469.668 407.399L469.669 407.399L471.201 403.481L477.852 402.391L479.216 401.556L483.053 407.851Z" fill="#2F2E41"/>
<path d="M422.752 306.965L419.231 320.377C419.231 320.377 418.269 325.935 418.767 326.434C419.616 327.639 420.045 329.091 419.987 330.565C419.763 331.925 417.484 331.371 418.624 333.395C419.763 335.419 416.241 366.224 416.241 366.224L413.087 404.102L424.35 405.43C425.967 404.481 426.204 403.402 425.249 402.211C425.249 402.211 427.56 399.541 426.286 398.502C425.012 397.463 427.313 397.029 427.439 394.378L434.709 368.366L437.115 362.552L436.486 359.518L438.313 356.036L439.192 346.901L441.576 370.908L463.835 396.522L474.795 391.031L475.438 389.627C475.703 389.05 475.748 388.395 475.565 387.787C475.382 387.179 474.984 386.658 474.445 386.324V386.324L470.727 382.858C471.046 381.43 465.987 377.851 465.987 377.851L457.518 361.877L462.777 317.133C462.777 317.133 470.727 306.51 460.195 296.899C455.88 292.961 422.752 306.965 422.752 306.965Z" fill="#2F2E41"/>
<path d="M456.648 289.346C458.515 286.565 462.998 290.558 461.504 285.566C460.009 280.574 456.228 279.646 459.613 274.869L464.493 251.055C464.786 245.371 462.859 239.796 459.122 235.51L452.098 227.455L451.042 224.598L439.086 224.098L438.09 227.593C434.518 232.049 428.672 237.772 428.847 246.189C429.184 262.386 426.663 283.939 420.454 311.977C420.454 311.977 434.339 301.112 438.705 305.819C443.071 310.526 456.224 309.247 459.511 305.967C461.618 303.699 463.154 300.961 463.995 297.98C463.995 297.98 454.78 292.126 456.648 289.346Z" fill="#78D98A"/>
<path d="M464.197 308.236L436.938 300.535L419.05 309.166C427.059 294.232 431.932 269.367 430.393 248.245C430.024 243.756 430.903 239.253 432.934 235.236C435.393 230.493 439.24 227.142 444.888 227.507L452.176 226.843L456.814 229.499C463.525 236.543 466.165 247.054 465.12 256.737C463.968 267.424 462.533 280.407 462.244 281.566C462.074 282.248 462.61 283.444 463.178 284.71C464.137 286.847 465.33 289.506 463.673 291.167C463.171 291.612 462.767 292.157 462.487 292.767C462.207 293.377 462.057 294.039 462.047 294.71C462.089 295.308 462.254 295.89 462.531 296.42C462.809 296.95 463.193 297.417 463.659 297.791C465.778 299.624 464.303 307.668 464.24 308.009L464.197 308.236Z" fill="#2F2E41"/>
<path d="M450.291 255.343L436.595 253.052C434.121 259.748 433.434 266.975 434.602 274.018L420.434 310.243L420.493 310.259C419.914 310.832 419.501 311.554 419.3 312.345C419.099 313.137 419.117 313.968 419.352 314.75C419.587 315.532 420.031 316.235 420.635 316.783C421.239 317.331 421.98 317.704 422.78 317.861C423.58 318.018 424.407 317.954 425.173 317.676C425.939 317.397 426.615 316.914 427.128 316.28C427.64 315.645 427.971 314.882 428.083 314.073C428.196 313.265 428.086 312.44 427.766 311.689L445.727 280.822L450.291 255.343Z" fill="#A0616A"/>
<path d="M434.288 262.693L450.189 259.374L452.786 247.81C452.784 245.428 451.838 243.145 450.157 241.461C448.475 239.778 446.196 238.832 443.819 238.832C441.442 238.832 439.162 239.778 437.481 241.461C435.799 243.145 434.854 245.428 434.851 247.81C433.249 254.245 433.528 256.11 434.288 262.693Z" fill="#78D98A"/>
<path d="M444.566 222.601C451.444 222.601 457.02 217.013 457.02 210.121C457.02 203.228 451.444 197.641 444.566 197.641C437.687 197.641 432.111 203.228 432.111 210.121C432.111 217.013 437.687 222.601 444.566 222.601Z" fill="#A0616A"/>
<path d="M459.013 200.636C458.044 198.898 454.189 201.122 452.993 199.531C452.046 198.145 450.841 196.956 449.443 196.03C448.285 195.355 446.972 194.992 445.632 194.977C444.292 194.962 442.971 195.295 441.797 195.944C440.938 196.559 440.017 197.083 439.051 197.508C438.045 197.83 436.731 197.587 436.296 196.623C436.603 197.465 436.91 198.308 437.217 199.15C436.402 199.528 435.476 199.586 434.62 199.313C433.764 199.039 433.042 198.454 432.596 197.673C432.542 198.545 432.488 199.418 432.434 200.29C432.362 200.051 432.207 199.846 431.998 199.712C431.788 199.578 431.537 199.523 431.291 199.559C430.981 199.652 430.701 199.825 430.478 200.059C430.254 200.293 430.095 200.581 430.016 200.895C429.229 203.214 431.111 205.919 433.523 206.308C435.016 206.548 436.516 206.068 438.014 205.865C439.512 205.661 441.246 205.831 442.192 207.012C443.121 208.172 442.941 209.825 442.995 211.312C443.049 212.798 443.697 214.581 445.168 214.779C446.177 214.916 447.142 214.21 448.159 214.271C449.61 214.357 450.541 216.028 450.384 217.477C450.228 218.925 449.319 220.165 448.442 221.327C449.892 221.442 451.342 221.557 452.791 221.672L452.229 221.828C455.775 221.654 458.512 218.205 458.936 214.673C459.359 211.141 460.745 203.742 459.013 200.636Z" fill="#2F2E41"/>
</g>
<defs>
<clipPath id="clip0_7_332">
<rect width="525" height="507" fill="white"/>
</clipPath>
</defs>
</svg>
