<svg width="228" height="292" viewBox="0 0 228 292" fill="none" xmlns="http://www.w3.org/2000/svg">
<path d="M180.259 149.696L173.241 101.232L179.433 100.561C185.906 99.8611 191.932 103.661 194.088 109.804C197.985 114.801 200.263 120.665 200.365 127.696C202.886 134.879 199.116 142.838 191.963 145.439L180.259 149.696V149.696Z" fill="#3F3D56"/>
<path d="M181.056 279.277L176.34 279.388L173.712 258.202L180.671 258.037L181.056 279.277Z" fill="#FFB8B8"/>
<path d="M164.877 289.115C164.877 289.912 165.442 290.557 166.14 290.557H175.5C175.5 290.557 176.421 286.855 180.177 285.261L180.436 290.557H185.265L184.679 282.041C184.679 282.041 185.971 277.485 183.289 275.156C180.606 272.827 182.779 273.152 182.779 273.152L181.724 267.881L174.427 268.739L174.373 277.013L170.832 285.225L165.638 287.791C165.176 288.019 164.877 288.54 164.877 289.115L164.877 289.115H164.877Z" fill="#2F2E41"/>
<path d="M163.827 279.116L159.111 279.227L156.483 258.041L163.442 257.877L163.827 279.116Z" fill="#FFB8B8"/>
<path d="M147.648 288.954C147.648 289.751 148.213 290.397 148.911 290.397H158.271C158.271 290.397 159.192 286.694 162.948 285.101L163.207 290.397H168.036L167.451 281.881C167.451 281.881 168.742 277.325 166.06 274.996C163.377 272.667 165.55 272.991 165.55 272.991L164.495 267.72L157.198 268.578L157.144 276.852L153.603 285.065L148.41 287.63C147.947 287.859 147.648 288.379 147.648 288.954L147.648 288.954H147.648Z" fill="#2F2E41"/>
<path d="M177.404 98.3396L160.421 101.293C159.251 98.2986 153.588 90.0353 153.103 87.1034C151.841 79.481 157.525 72.4536 165.229 71.8786H165.229C172.619 71.3272 177.121 72.711 177.75 79.7497C177.97 82.2169 181.183 84.443 181.83 86.834C185.4 100.025 178.258 95.5287 177.404 98.3396V98.3396Z" fill="#2F2E41"/>
<path d="M151.906 153.588L150.799 170.571L155.554 265.195L164.32 263.552L170.235 186.446L172.396 264.899L182.734 265.268L189.999 173.135C190.554 166.096 188.709 159.076 184.764 153.219V153.219L151.906 153.588V153.588Z" fill="#2F2E41"/>
<path d="M173.319 98.9476H159.77L156.706 103.747L145.999 108.177L151.906 150.265L150.43 168.355C158.776 171.188 178.147 175.571 192.158 164.002L179.596 141.405L182.549 109.654L176.827 104.448L173.319 98.9476V98.9476Z" fill="#78D98A"/>
<path d="M165.823 96.561C171.477 96.561 176.06 91.9777 176.06 86.3238C176.06 80.67 171.477 76.0867 165.823 76.0867C160.169 76.0867 155.586 80.67 155.586 86.3238C155.586 91.9777 160.169 96.561 165.823 96.561Z" fill="#FFB8B8"/>
<path d="M191.095 178.176C190.875 177.064 190.924 175.995 191.184 175.118L188.42 164.664L193.432 163.494L195.697 174.224C196.272 174.937 196.725 175.906 196.945 177.017C197.448 179.556 196.545 181.873 194.93 182.193C193.314 182.513 191.597 180.714 191.095 178.176V178.176Z" fill="#FFB8B8"/>
<path d="M175.719 107.254C175.719 107.254 181.995 104.67 184.949 109.47C187.902 114.269 195.655 170.755 195.655 170.755L189.195 171.678L176.457 126.083L175.719 107.254Z" fill="#78D98A"/>
<path d="M180.208 139.735L174.967 102.989L179.432 106.56L180.208 139.735Z" fill="#3F3D56"/>
<path d="M177.451 116.384C176.612 117.247 175.649 117.848 174.725 118.15L167.258 126.868L163.213 123.193L171.224 114.745C171.499 113.813 172.073 112.833 172.911 111.971C174.827 110.001 177.395 109.392 178.649 110.611C179.902 111.83 179.366 114.415 177.451 116.384Z" fill="#FFB8B8"/>
<path d="M152.842 105.642C152.842 105.642 145.79 106.449 145.255 109.385C144.719 112.322 148.537 139.591 148.537 139.591L153.841 145.214L174.566 120.526L168.333 116.611L158.753 124.139L152.842 105.642H152.842Z" fill="#78D98A"/>
<path d="M164.568 73.5079C160.404 74.2406 156.369 76.4951 154.209 80.1296C152.048 83.7641 148.09 88.8281 150.96 91.9331C151.952 93.0063 153.215 93.8187 154.108 94.976C155.626 96.9455 155.845 99.7126 155.088 102.081C154.331 104.45 152.707 106.458 150.85 108.112C154.826 107.701 158.455 104.877 159.828 101.123C160.463 99.3853 160.593 97.3015 159.505 95.8051C158.933 95.0181 158.091 94.48 157.365 93.8329C155.491 92.1638 156.695 89.6426 156.706 87.1335C156.717 84.6244 157.033 82.8789 158.921 81.2264C160.221 82.2657 164.533 82.0148 166.176 81.7482C167.819 81.4816 172.414 87.7922 173.319 86.3951C175.091 88.6724 173.879 83.9797 173.546 86.8457C173.308 88.8961 171.962 90.6647 171.556 92.6886C171.203 94.4498 171.589 96.2825 172.209 97.9681C173.609 101.771 176.233 105.112 179.596 107.372C177.654 104.626 175.63 101.625 175.694 98.2631C175.741 95.7692 181.055 86.239 181.799 83.8582C183.223 79.3025 179.304 78.637 176.273 74.9502C173.611 71.7124 168.465 72.7129 164.384 73.6715" fill="#2F2E41"/>
<path d="M64.922 291.376H60.2847V2.46465C60.2847 1.81098 60.529 1.18409 60.9639 0.721881C61.3987 0.25967 61.9884 0 62.6034 0C63.2183 0 63.8081 0.25967 64.2429 0.721881C64.6778 1.18409 64.922 1.81098 64.922 2.46465V291.376Z" fill="#E6E6E6"/>
<path d="M99.412 37.8712H27.2133C26.5555 37.8704 25.9248 37.6129 25.4597 37.1551C24.9946 36.6973 24.7329 36.0766 24.7322 35.4292V14.8081C24.7329 14.1606 24.9946 13.5399 25.4597 13.0821C25.9248 12.6243 26.5555 12.3668 27.2133 12.3661H99.4172C99.8405 12.3664 100.257 12.473 100.626 12.6758L119.297 22.9316C119.682 23.1429 120.003 23.4514 120.227 23.8252C120.45 24.199 120.569 24.6247 120.569 25.0585C120.57 25.4923 120.454 25.9185 120.232 26.2933C120.01 26.6681 119.691 26.9779 119.307 27.191L100.631 37.5564C100.259 37.7625 99.8389 37.8709 99.412 37.8712V37.8712Z" fill="#78D98A"/>
<path d="M92.6034 82.6983H20.9869C20.5635 82.698 20.1472 82.5896 19.7782 82.3835L1.25229 72.0181C0.871483 71.8051 0.554738 71.4952 0.334641 71.1204C0.114545 70.7456 -0.000959765 70.3194 6.00699e-06 69.8857C0.000971779 69.4519 0.118386 69.0262 0.340149 68.6524C0.561913 68.2785 0.880018 67.9701 1.26177 67.7587L19.7824 57.503C20.1491 57.3001 20.5619 57.1935 20.9817 57.1932H92.6034C93.2558 57.194 93.8814 57.4515 94.3428 57.9093C94.8042 58.3671 95.0637 58.9878 95.0644 59.6352V80.2563C95.0637 80.9038 94.8042 81.5245 94.3428 81.9823C93.8814 82.4401 93.2558 82.6976 92.6034 82.6983Z" fill="#E6E6E6"/>
<path d="M93.3562 126.753H21.1575C20.7307 126.752 20.311 126.644 19.939 126.438L1.26247 116.072C0.878569 115.859 0.559248 115.549 0.337362 115.175C0.115476 114.8 -0.000967568 114.374 6.05583e-06 113.94C0.000979679 113.506 0.119348 113.08 0.342915 112.707C0.566481 112.333 0.887173 112.024 1.27203 111.813L19.9432 101.557C20.3129 101.354 20.729 101.248 21.1522 101.247H93.3562C94.014 101.248 94.6447 101.506 95.1098 101.963C95.5749 102.421 95.8365 103.042 95.8373 103.689V124.311C95.8365 124.958 95.5749 125.579 95.1098 126.036C94.6447 126.494 94.014 126.752 93.3562 126.753V126.753Z" fill="#E6E6E6"/>
<path d="M28.5966 290.99C28.5966 291.204 28.8872 291.376 29.2491 291.376H227.348C227.709 291.376 228 291.204 228 290.99C228 290.776 227.709 290.603 227.348 290.603H29.2491C28.8872 290.603 28.5966 290.776 28.5966 290.99Z" fill="#CCCCCC"/>
</svg>
