<svg width="228" height="192" viewBox="0 0 228 192" fill="none" xmlns="http://www.w3.org/2000/svg">
<g clip-path="url(#clip0_7_208)">
<path d="M155.075 12.4139H72.9249C71.2776 12.4139 69.6977 11.7599 68.5328 10.5959C67.368 9.43187 66.7136 7.85311 66.7136 6.20693C66.7136 4.56075 67.368 2.98199 68.5328 1.81797C69.6977 0.653941 71.2776 0 72.9249 0H155.075C156.723 0 158.302 0.653941 159.467 1.81797C160.632 2.98199 161.287 4.56075 161.287 6.20693C161.287 7.85311 160.632 9.43187 159.467 10.5959C158.302 11.7599 156.723 12.4139 155.075 12.4139V12.4139Z" fill="#78D98A"/>
<path d="M227.035 22.3392H0.965151C0.707244 22.3335 0.461817 22.2272 0.281429 22.0429C0.101041 21.8586 3.05176e-05 21.611 3.05176e-05 21.3533C3.05176e-05 21.0955 0.101041 20.8479 0.281429 20.6637C0.461817 20.4794 0.707244 20.373 0.965151 20.3673H227.035C227.293 20.373 227.538 20.4794 227.719 20.6637C227.899 20.8479 228 21.0955 228 21.3533C228 21.611 227.899 21.8586 227.719 22.0429C227.538 22.2272 227.293 22.3335 227.035 22.3392V22.3392Z" fill="#E6E6E6"/>
<path d="M12.255 9.72689C14.1266 9.72689 15.6438 8.17695 15.6438 6.26499C15.6438 4.35304 14.1266 2.8031 12.255 2.8031C10.3834 2.8031 8.86615 4.35304 8.86615 6.26499C8.86615 8.17695 10.3834 9.72689 12.255 9.72689Z" fill="#3F3D56"/>
<path d="M23.9619 9.72689C25.8335 9.72689 27.3508 8.17695 27.3508 6.26499C27.3508 4.35304 25.8335 2.8031 23.9619 2.8031C22.0903 2.8031 20.5731 4.35304 20.5731 6.26499C20.5731 8.17695 22.0903 9.72689 23.9619 9.72689Z" fill="#3F3D56"/>
<path d="M35.6688 9.72689C37.5404 9.72689 39.0577 8.17695 39.0577 6.26499C39.0577 4.35304 37.5404 2.8031 35.6688 2.8031C33.7972 2.8031 32.28 4.35304 32.28 6.26499C32.28 8.17695 33.7972 9.72689 35.6688 9.72689Z" fill="#3F3D56"/>
<path d="M49.0178 9.00125C48.9645 9.00132 48.9116 8.9907 48.8624 8.97001C48.8132 8.94932 48.7686 8.91898 48.7314 8.8808L46.4448 6.54499C46.3715 6.47019 46.3304 6.36967 46.3304 6.26499C46.3304 6.16031 46.3715 6.0598 46.4448 5.98499L48.7314 3.64938C48.8059 3.57461 48.907 3.5323 49.0127 3.53162C49.1183 3.53095 49.2199 3.57198 49.2954 3.64579C49.3709 3.7196 49.4142 3.82022 49.4159 3.92576C49.4175 4.0313 49.3774 4.13323 49.3043 4.20938L47.2918 6.26499L49.3043 8.3208C49.3594 8.37715 49.3967 8.44852 49.4115 8.52595C49.4262 8.60338 49.4178 8.68343 49.3872 8.75609C49.3566 8.82874 49.3052 8.89076 49.2395 8.93437C49.1738 8.97798 49.0967 9.00125 49.0178 9.00125V9.00125Z" fill="#3F3D56"/>
<path d="M52.8602 9.00125C52.7813 9.00125 52.7042 8.97799 52.6385 8.93437C52.5728 8.89076 52.5214 8.82874 52.4909 8.75609C52.4603 8.68343 52.4518 8.60338 52.4666 8.52595C52.4813 8.44852 52.5186 8.37715 52.5737 8.3208L54.586 6.26499L52.5737 4.20938C52.5006 4.13323 52.4605 4.0313 52.4622 3.92576C52.4638 3.82022 52.5071 3.7196 52.5826 3.64579C52.6581 3.57198 52.7598 3.53095 52.8654 3.53162C52.971 3.5323 53.0721 3.57461 53.1467 3.64938L55.4331 5.98499C55.5064 6.0598 55.5474 6.16031 55.5474 6.26499C55.5474 6.36967 55.5064 6.47019 55.4331 6.54499L53.1467 8.8808C53.1094 8.91899 53.0648 8.94932 53.0156 8.97001C52.9664 8.9907 52.9136 9.00132 52.8602 9.00125V9.00125Z" fill="#E6E6E6"/>
<path d="M203.495 3.20361C203.262 3.2039 203.039 3.29651 202.874 3.46113C202.709 3.62575 202.617 3.84893 202.617 4.08174V8.33219C202.617 8.565 202.709 8.78819 202.874 8.95281C203.039 9.11743 203.262 9.21004 203.495 9.21032H207.749C207.982 9.21004 208.205 9.11743 208.37 8.95281C208.535 8.78819 208.627 8.565 208.628 8.33219V4.08174C208.627 3.84893 208.535 3.62575 208.37 3.46113C208.205 3.29651 207.982 3.2039 207.749 3.20361H203.495Z" fill="#E6E6E6"/>
<path d="M193.076 3.20361C192.843 3.2039 192.62 3.29651 192.455 3.46113C192.29 3.62575 192.198 3.84893 192.197 4.08174V8.33219C192.198 8.565 192.29 8.78819 192.455 8.95281C192.62 9.11743 192.843 9.21004 193.076 9.21032H197.33C197.563 9.21004 197.786 9.11743 197.951 8.95281C198.115 8.78819 198.208 8.565 198.208 8.33219V4.08174C198.208 3.84893 198.115 3.62575 197.951 3.46113C197.786 3.29651 197.563 3.2039 197.33 3.20361H193.076Z" fill="#E6E6E6"/>
<path d="M213.313 3.40381C213.08 3.4041 212.857 3.4967 212.692 3.66132C212.527 3.82594 212.435 4.04913 212.434 4.28193V8.53239C212.435 8.76519 212.527 8.98838 212.692 9.153C212.857 9.31762 213.08 9.41023 213.313 9.41052H217.567C217.8 9.41023 218.023 9.31762 218.188 9.153C218.353 8.98838 218.445 8.76519 218.445 8.53239V4.28193C218.445 4.04913 218.353 3.82594 218.188 3.66132C218.023 3.4967 217.8 3.4041 217.567 3.40381H213.313Z" fill="#E6E6E6"/>
<path d="M164.693 93.3042H63.3073C60.8636 93.3014 58.5209 92.3302 56.793 90.6035C55.0651 88.8769 54.0931 86.5358 54.0904 84.0939V46.4519C54.0932 44.01 55.0651 41.6689 56.793 39.9423C58.5209 38.2156 60.8636 37.2444 63.3073 37.2416H164.693C167.136 37.2444 169.479 38.2156 171.207 39.9423C172.935 41.6689 173.907 44.01 173.91 46.4519V84.0939C173.907 86.5358 172.935 88.8769 171.207 90.6035C169.479 92.3302 167.136 93.3014 164.693 93.3042V93.3042Z" fill="#F2F2F2"/>
<path d="M109.37 7.16154H75.384C75.1001 7.16154 74.8279 7.04884 74.6271 6.84824C74.4264 6.64764 74.3136 6.37557 74.3136 6.09187C74.3136 5.80818 74.4264 5.53611 74.6271 5.33551C74.8279 5.13491 75.1001 5.02222 75.384 5.02222H109.37C109.654 5.02222 109.926 5.13491 110.127 5.33551C110.328 5.53611 110.44 5.80818 110.44 6.09187C110.44 6.37557 110.328 6.64764 110.127 6.84824C109.926 7.04884 109.654 7.16154 109.37 7.16154V7.16154Z" fill="white"/>
<path d="M73.6477 191.434L73.3858 191.337C69.0017 189.684 65.0303 187.098 61.7476 183.757C58.4649 180.416 55.9497 176.4 54.3768 171.99C53.5142 169.509 52.9676 166.929 52.75 164.312L52.7286 164.062L52.9755 164.106C55.9223 164.635 59.0158 164.927 60.3941 165.041L52.6614 159.928L52.6754 159.662C52.7342 158.442 53.1574 157.268 53.8902 156.29C54.6231 155.312 55.6322 154.576 56.7874 154.177C57.9536 153.747 59.222 153.675 60.4293 153.971C61.6366 154.268 62.7274 154.919 63.5612 155.84C64.33 156.674 65.1428 157.513 65.9286 158.325C68.6294 161.115 71.4222 163.999 73.1881 167.404C74.4995 169.994 75.2152 172.845 75.2831 175.747C75.351 178.649 74.7692 181.53 73.5804 184.179L73.6477 191.434Z" fill="#F2F2F2"/>
<path d="M195.774 190.735L39.5985 190.858C39.5357 190.858 39.4735 190.846 39.4154 190.822C39.3574 190.798 39.3046 190.763 39.2602 190.719C39.2157 190.674 39.1804 190.622 39.1564 190.564C39.1323 190.506 39.1199 190.444 39.1199 190.381C39.1199 190.318 39.1323 190.256 39.1564 190.198C39.1804 190.14 39.2157 190.088 39.2602 190.043C39.3046 189.999 39.3574 189.964 39.4154 189.94C39.4735 189.916 39.5357 189.904 39.5985 189.904L195.774 189.781C195.837 189.781 195.899 189.793 195.958 189.817C196.016 189.841 196.068 189.876 196.113 189.92C196.157 189.965 196.192 190.017 196.217 190.075C196.241 190.133 196.253 190.195 196.253 190.258C196.253 190.321 196.241 190.383 196.217 190.441C196.192 190.499 196.157 190.551 196.113 190.596C196.068 190.64 196.016 190.675 195.958 190.699C195.899 190.723 195.837 190.735 195.774 190.735V190.735Z" fill="#CACACA"/>
<path d="M162.458 73.7413L160.839 48.6695C160.767 47.6075 160.28 46.6163 159.483 45.9097C158.687 45.2032 157.644 44.8379 156.58 44.8929V44.8929C156.03 44.9213 155.491 45.0614 154.997 45.3047C154.503 45.5479 154.063 45.8893 153.705 46.3078C153.347 46.7264 153.078 47.2135 152.914 47.7393C152.751 48.2652 152.696 48.8188 152.754 49.3664L155.235 75.3583L156.077 91.2155C155.423 91.5333 154.883 92.0446 154.53 92.6799C154.177 93.3152 154.028 94.0437 154.104 94.7664C154.179 95.4891 154.476 96.171 154.953 96.7194C155.43 97.2678 156.064 97.6562 156.77 97.8318C157.476 98.0073 158.218 97.9615 158.897 97.7006C159.576 97.4398 160.158 96.9764 160.564 96.3736C160.97 95.7707 161.18 95.0576 161.166 94.3311C161.153 93.6045 160.915 92.8998 160.487 92.3127L162.458 73.7413Z" fill="#A0616A"/>
<path d="M163.474 53.6298C163.651 53.4367 163.76 53.1909 163.783 52.9301C163.807 52.6693 163.745 52.4079 163.605 52.1861C163.438 51.9093 163.362 51.5873 163.388 51.2651C163.393 51.2029 163.403 51.1411 163.417 51.0801C163.508 50.7148 163.51 50.3327 163.422 49.9665C163.334 49.6003 163.159 49.2606 162.912 48.9765C162.084 48.053 161.65 46.6256 161.437 45.3467C161.205 43.9474 161.046 42.5144 160.485 41.2112C159.677 39.3314 157.848 37.6959 155.464 38.5959C154.456 38.9944 153.616 39.7279 153.086 40.6728C151.952 42.6337 152.022 44.9527 152.111 47.1706L151.647 46.3096C151.786 48.7304 151.434 51.1543 150.613 53.4359C151.147 53.3123 151.554 54.0207 151.399 54.5462C151.243 55.0717 150.775 55.4302 150.377 55.8062C149.874 56.2801 149.408 56.9739 149.92 57.6521C150.047 57.8109 150.206 57.9417 150.386 58.0363C150.566 58.1309 150.764 58.1873 150.967 58.2019C154.795 58.5598 158.656 58.1228 162.307 56.9182C163.117 56.6502 163.984 56.2873 164.384 55.5333C164.783 54.7793 164.327 53.5872 163.474 53.6298Z" fill="#78D98A"/>
<path d="M135.132 181.501H130.71L128.605 164.452H135.133L135.132 181.501Z" fill="#A0616A"/>
<path d="M137.467 189.159H134.295L133.729 186.166L132.279 189.159H123.866C123.463 189.159 123.07 189.03 122.745 188.791C122.42 188.552 122.18 188.216 122.06 187.831C121.94 187.447 121.947 187.034 122.078 186.653C122.21 186.272 122.459 185.943 122.791 185.714L129.51 181.077V178.052L136.576 178.473L137.467 189.159Z" fill="#2F2E41"/>
<path d="M158.913 177.608L154.793 179.217L146.622 164.104L152.702 161.729L158.913 177.608Z" fill="#A0616A"/>
<path d="M163.877 183.891L160.923 185.045L159.305 182.464L159.045 185.779L151.209 188.839C150.834 188.986 150.421 189.009 150.031 188.905C149.642 188.8 149.296 188.574 149.044 188.26C148.792 187.945 148.647 187.558 148.631 187.155C148.615 186.753 148.728 186.356 148.953 186.022L153.521 179.259L152.419 176.441L159.154 174.263L163.877 183.891Z" fill="#2F2E41"/>
<path d="M156.131 71.2795H135.495C135.495 71.2795 127.724 126.74 127.702 126.841C127.679 126.942 132.087 128.544 130.084 130.546L128.08 132.548C126.477 134.15 129.27 139.623 129.27 139.623L126.076 172.192H139.266L145.712 104.917L136.992 137.17L148.353 172.192L156.532 167.387L158.135 162.982L154.951 159.8C154.951 159.8 154.128 155.017 154.128 152.192C154.128 149.367 156.532 151.769 154.128 149.367C153.088 148.327 150.159 135.572 150.159 135.572L159.738 104.917L162.02 91.233C162.608 87.7057 162.079 84.0833 160.51 80.8701C159.24 78.2694 157.642 74.8633 156.131 71.2795Z" fill="#2F2E41"/>
<path d="M157.334 37.2416L155.962 33.1302C155.657 32.2154 155.085 31.4126 154.32 30.8248C153.555 30.237 152.632 29.891 151.669 29.8313L150.451 29.7556C149.366 29.6884 148.291 29.9873 147.398 30.6044C146.504 31.2215 145.844 32.1209 145.524 33.158V33.158C145.243 34.0756 144.695 34.8885 143.949 35.4927C143.203 36.0969 142.293 36.4648 141.337 36.5493C137.775 36.8526 132.488 37.9288 132.488 41.6465C132.488 47.2528 138.499 62.0694 137.297 63.2707C136.095 64.472 133.29 69.4224 134.893 70.8792C135.31 71.2587 134.974 73.0841 134.84 74.3917C134.598 76.7597 151.323 71.5244 156.131 72.8814C160.94 74.2385 158.536 64.0716 159.337 63.2707C160.09 62.3542 160.76 61.3737 161.341 60.3404C161.625 59.8648 161.825 59.3439 161.932 58.8005L163.313 51.8198C163.336 51.7036 163.354 51.5898 163.368 51.4722C163.551 49.9781 164.618 39.9251 160.54 38.443C156.131 36.8412 157.334 37.2416 157.334 37.2416Z" fill="#78D98A"/>
<path d="M111.352 27.1545L129.629 44.4068C130.406 45.1355 131.438 45.5298 132.503 45.5047C133.568 45.4797 134.58 45.0372 135.321 44.2729V44.2729C135.705 43.8775 136.004 43.4082 136.2 42.8936C136.396 42.379 136.485 41.8298 136.462 41.2797C136.439 40.7295 136.304 40.1898 136.065 39.6936C135.826 39.1973 135.489 38.7548 135.073 38.3931L115.538 21.0538L104.112 10.0177C104.374 9.33988 104.421 8.59786 104.247 7.89248C104.072 7.18709 103.684 6.55253 103.136 6.07501C102.588 5.59749 101.906 5.30016 101.183 5.22341C100.46 5.14666 99.7307 5.29422 99.0944 5.64604C98.4581 5.99786 97.9457 6.53688 97.6266 7.18987C97.3076 7.84286 97.1975 8.57816 97.3112 9.29587C97.425 10.0136 97.757 10.6789 98.2624 11.2015C98.7677 11.724 99.4217 12.0784 100.136 12.2166L111.352 27.1545Z" fill="#A0616A"/>
<path d="M124.319 42.5695C124.321 42.8314 124.409 43.0853 124.569 43.2923C124.73 43.4994 124.954 43.6481 125.207 43.7156C125.518 43.8048 125.793 43.9887 125.994 44.2418C126.032 44.2911 126.067 44.343 126.099 44.3969C126.281 44.7267 126.54 45.0077 126.854 45.216C127.168 45.4243 127.528 45.5537 127.902 45.5934C129.138 45.7061 130.429 46.4552 131.456 47.247C132.58 48.1136 133.674 49.0539 134.972 49.6265C136.846 50.4523 139.3 50.4044 140.431 48.1228C140.898 47.1449 141.012 46.0363 140.756 44.9839C140.25 42.7762 138.617 41.1265 137.041 39.5632L137.967 39.8774C136.215 38.1999 134.82 36.1861 133.866 33.9568C133.559 34.4109 132.779 34.169 132.534 33.6786C132.29 33.1882 132.388 32.6071 132.424 32.0604C132.469 31.3712 132.336 30.5463 131.499 30.3984C131.298 30.3687 131.093 30.3808 130.896 30.4341C130.7 30.4874 130.517 30.5807 130.358 30.7082C127.312 33.052 124.783 36.0001 122.932 39.3673C122.521 40.1154 122.134 40.9708 122.355 41.795C122.577 42.6192 123.723 43.1812 124.319 42.5695Z" fill="#78D98A"/>
<path d="M150.521 28.8322C155.39 28.8322 159.337 24.8879 159.337 20.0224C159.337 15.1568 155.39 11.2125 150.521 11.2125C145.652 11.2125 141.705 15.1568 141.705 20.0224C141.705 24.8879 145.652 28.8322 150.521 28.8322Z" fill="#A0616A"/>
<path d="M163.882 28.4037C163.425 27.4787 161.97 27.5868 161.229 28.3076C160.491 29.0284 160.223 30.0856 159.806 31.0266C159.389 31.9717 158.64 32.9287 157.61 32.9688C156.632 33.0048 155.843 32.2119 154.929 31.8676C153.899 31.4791 152.769 31.6834 151.727 32.0838C151.703 31.9837 151.679 31.8836 151.647 31.7875C151.496 31.2709 151.279 30.7758 151.002 30.3138C151.001 30.8252 150.92 31.3332 150.762 31.8195C150.662 32.1275 150.531 32.4242 150.369 32.7045C149.371 33.2091 148.385 33.7497 147.287 33.9299C145.957 34.1541 144.366 33.6576 143.865 32.4002C143.496 31.4711 143.825 30.3899 144.386 29.553C144.947 28.72 145.716 28.0513 146.346 27.2704C146.962 26.5417 147.424 25.696 147.704 24.7841C147.984 23.8722 148.077 22.9131 147.977 21.9645C147.865 21.1328 147.558 20.3393 147.08 19.6494C146.602 18.9595 145.967 18.3928 145.228 17.9961C144.452 18.2755 143.649 18.4689 142.831 18.5727C142.679 18.0562 142.463 17.561 142.186 17.0991C142.185 17.6104 142.104 18.1184 141.946 18.6048C141.183 18.5935 140.45 18.3045 139.886 17.7918C138.684 16.6546 138.796 14.6684 139.485 13.1627C140.009 12.0222 140.797 11.0223 141.783 10.2454C142.769 9.46849 143.926 8.93675 145.158 8.69394C146.39 8.45113 147.662 8.50419 148.87 8.84876C150.078 9.19334 151.186 9.81957 152.104 10.6759C153.423 8.95398 156.067 8.68167 158.031 9.61071C159.991 10.5438 161.353 12.4018 162.319 14.344C164.473 18.7026 165.026 23.6789 163.882 28.4037V28.4037Z" fill="#2F2E41"/>
</g>
<defs>
<clipPath id="clip0_7_208">
<rect width="228" height="191.434" fill="white"/>
</clipPath>
</defs>
</svg>
