<svg width="293" height="283" viewBox="0 0 293 283" fill="none" xmlns="http://www.w3.org/2000/svg">
<g clip-path="url(#clip0_7_31)">
<path d="M66.6228 36.6366C76.7174 36.6366 84.9007 28.4352 84.9007 18.3183C84.9007 8.20137 76.7174 0 66.6228 0C56.5282 0 48.345 8.20137 48.345 18.3183C48.345 28.4352 56.5282 36.6366 66.6228 36.6366Z" fill="#78D98A"/>
<path d="M87.1906 135.12C80.0479 135.12 73.1401 132.563 67.7116 127.911C65.9008 126.357 63.9713 123.656 61.9769 119.884C60.7042 117.454 59.9913 114.769 59.8908 112.026C59.7903 109.283 60.3046 106.553 61.396 104.036C60.344 105.109 59.1804 106.065 57.9252 106.889L57.2906 107.312L57.2539 106.55C57.2299 106.054 57.2177 105.56 57.2177 105.081C57.2177 102.258 59.3475 99.3947 58.3653 96.7861C54.2253 85.7915 41.0943 74.865 60.1251 57.8492C61.8856 56.2752 59.5339 53.128 59.5339 50.7465C59.5339 27.4071 84.8372 -7.60411 101.776 8.41908C111.664 17.772 132.263 24.4161 141.881 37.4255L142.009 37.8109L141.633 37.9631C139.712 38.7725 137.688 39.3121 135.619 39.5664C137.824 40.0172 140.075 40.2062 142.325 40.1295L142.674 40.1173L142.759 40.4572C143.596 43.8226 144.019 47.2781 144.019 50.7465L144.017 51.1214C144.009 53.7559 144.555 56.3624 145.62 58.7711C146.685 61.1798 148.244 63.3365 150.197 65.1007C153.28 67.9185 155.744 71.3492 157.432 75.1743C159.119 78.9993 159.993 83.1348 159.997 87.317C159.997 92.2649 156.642 98.7598 153.827 103.337C153.114 104.503 152.146 105.492 150.997 106.23C149.848 106.967 148.547 107.435 147.192 107.597C145.908 107.759 144.605 107.636 143.373 107.238C142.142 106.839 141.014 106.174 140.068 105.29C141.4 107.975 143.136 110.439 145.216 112.595L145.6 112.991L145.123 113.27C140.54 115.948 135.33 117.358 130.025 117.356L129.714 117.355C121.66 117.355 114.016 120.482 108.74 125.935C105.939 128.827 102.59 131.129 98.8899 132.706C95.1894 134.283 91.2118 135.104 87.1906 135.12V135.12Z" fill="#E6E6E6"/>
<path d="M76.6212 182.174C76.4915 182.174 76.3662 182.127 76.2683 182.042C76.1705 181.957 76.1065 181.839 76.0882 181.71C76.0653 181.549 73.8222 165.336 75.8368 143.788C77.6973 123.887 83.6719 95.2237 101.57 71.6829C101.613 71.6265 101.666 71.5791 101.727 71.5434C101.789 71.5077 101.856 71.4845 101.926 71.475C101.997 71.4655 102.068 71.4699 102.136 71.488C102.205 71.5062 102.269 71.5376 102.325 71.5806C102.382 71.6236 102.429 71.6773 102.464 71.7386C102.5 71.8 102.523 71.8677 102.533 71.938C102.542 72.0083 102.538 72.0798 102.52 72.1484C102.502 72.217 102.47 72.2813 102.427 72.3378C84.684 95.6753 78.7575 124.128 76.9102 143.888C74.9073 165.311 77.1328 181.398 77.1555 181.558C77.1664 181.635 77.1606 181.713 77.1387 181.787C77.1168 181.861 77.0793 181.93 77.0286 181.988C76.978 182.047 76.9154 182.094 76.8451 182.126C76.7748 182.158 76.6985 182.174 76.6212 182.174H76.6212Z" fill="#CCCCCC"/>
<path d="M92.9634 104.293C92.8496 104.293 92.7386 104.257 92.6465 104.19C92.5543 104.123 92.4857 104.028 92.4505 103.92C92.4152 103.811 92.4152 103.694 92.4503 103.586C92.4855 103.477 92.554 103.383 92.6461 103.315C97.746 99.8558 103.255 97.0451 109.047 94.948C118.096 91.6279 131.856 88.618 146.021 93.1364C146.089 93.1579 146.151 93.1925 146.205 93.2382C146.26 93.284 146.304 93.3399 146.337 93.4029C146.369 93.4659 146.389 93.5348 146.395 93.6054C146.401 93.6761 146.393 93.7473 146.372 93.8149C146.35 93.8825 146.316 93.9452 146.27 93.9994C146.224 94.0536 146.168 94.0983 146.106 94.1309C146.043 94.1635 145.974 94.1833 145.903 94.1893C145.833 94.1953 145.762 94.1873 145.695 94.1658C131.819 89.7403 118.309 92.7004 109.418 95.9627C103.719 98.0238 98.2981 100.787 93.2799 104.189C93.188 104.257 93.0772 104.293 92.9634 104.293V104.293Z" fill="#CCCCCC"/>
<path d="M67.9233 40.4887C67.915 40.3749 67.9429 40.2614 68.003 40.1645C68.063 40.0675 68.1522 39.9921 68.2576 39.9491C68.3631 39.906 68.4794 39.8976 68.59 39.9249C68.7005 39.9522 68.7996 40.0139 68.873 40.1012C72.6833 44.9498 75.8773 50.2545 78.3814 55.8932C82.3373 64.6993 86.3237 78.2371 82.8471 92.7225C82.8306 92.7915 82.8007 92.8566 82.7591 92.914C82.7174 92.9715 82.665 93.0201 82.6046 93.0572C82.5442 93.0943 82.4771 93.1191 82.4072 93.1302C82.3372 93.1412 82.2658 93.1384 82.1969 93.1218C82.1281 93.1052 82.0632 93.0752 82.0059 93.0334C81.9486 92.9917 81.9001 92.939 81.8632 92.8785C81.8262 92.8179 81.8016 92.7507 81.7905 92.6806C81.7795 92.6105 81.7824 92.5389 81.799 92.4699C85.2041 78.2812 81.2852 64.9892 77.3983 56.3368C74.9366 50.7886 71.7961 45.5689 68.0488 40.7976C67.9754 40.7106 67.9314 40.6024 67.9233 40.4887Z" fill="#CCCCCC"/>
<path d="M199.429 214.999C162.355 214.999 133.898 213.044 114.146 205.202C66.0372 186.102 49.7275 178.171 49.5682 178.093L49.8929 177.427C50.0517 177.505 66.3452 185.427 114.418 204.513C142.932 215.834 189.848 214.824 254.784 213.426C266.969 213.164 279.569 212.893 292.988 212.677L293 213.418C279.583 213.634 266.984 213.905 254.799 214.167C234.599 214.602 216.138 214.999 199.429 214.999Z" fill="#CACACA"/>
<path d="M42.9666 263.625L42.4437 263.101C60.4065 245.098 67.3286 238.216 68.7952 236.759L15.8661 198.442L16.2991 197.841L69.9361 236.671L69.6254 236.979C69.566 237.038 63.4346 243.112 42.9666 263.625Z" fill="#CACACA"/>
<path d="M69.6178 283L69.1133 282.458C70.7704 280.908 109.745 244.535 117.34 244.535H117.364L291.925 246.316L291.918 247.058L117.357 245.276H117.335C110.037 245.276 70.0217 282.622 69.6178 283Z" fill="#CACACA"/>
<path d="M288.224 226.305H243.39V227.046H288.224V226.305Z" fill="#CACACA"/>
<path d="M204.289 226.305H159.455V227.046H204.289V226.305Z" fill="#CACACA"/>
<path d="M157.33 166.584H131.447V160.031H141.061C141.649 160.031 142.213 159.797 142.629 159.38C143.045 158.963 143.279 158.397 143.279 157.807V150.708C143.279 150.118 143.045 149.553 142.629 149.136C142.213 148.719 141.649 148.485 141.061 148.485H131.447V146.261C131.447 145.475 131.135 144.721 130.58 144.165C130.026 143.609 129.273 143.297 128.489 143.297C127.704 143.297 126.952 143.609 126.397 144.165C125.842 144.721 125.531 145.475 125.531 146.261V148.485H90.0005C89.5412 148.485 89.0932 148.627 88.7184 148.893L83.7167 152.443C83.4273 152.649 83.1912 152.921 83.0282 153.236C82.8653 153.552 82.7803 153.902 82.7803 154.258C82.7803 154.613 82.8653 154.963 83.0282 155.279C83.1912 155.595 83.4273 155.867 83.7167 156.072L88.7184 159.622C89.0932 159.888 89.5412 160.031 90.0005 160.031H125.531V166.584H99.6477C99.0593 166.584 98.4951 166.818 98.079 167.235C97.6629 167.652 97.4292 168.218 97.4292 168.808V175.907C97.4292 176.497 97.6629 177.062 98.079 177.479C98.4951 177.896 99.0593 178.131 99.6477 178.131H125.531V202.588C125.531 203.375 125.842 204.129 126.397 204.685C126.952 205.241 127.704 205.553 128.489 205.553C129.273 205.553 130.026 205.241 130.58 204.685C131.135 204.129 131.447 203.375 131.447 202.588V178.131H157.33C157.918 178.131 158.483 177.896 158.899 177.479C159.315 177.062 159.548 176.497 159.548 175.907V168.808C159.548 168.516 159.491 168.227 159.38 167.957C159.268 167.687 159.105 167.442 158.899 167.235C158.693 167.029 158.448 166.865 158.179 166.753C157.91 166.642 157.621 166.584 157.33 166.584Z" fill="#3F3D56"/>
<path d="M113.699 154.599H95.2107C94.8674 154.599 94.5382 154.462 94.2955 154.219C94.0528 153.976 93.9165 153.646 93.9165 153.302C93.9165 152.958 94.0528 152.628 94.2955 152.385C94.5382 152.142 94.8674 152.005 95.2107 152.005H113.699C114.042 152.005 114.371 152.142 114.614 152.385C114.856 152.628 114.993 152.958 114.993 153.302C114.993 153.646 114.856 153.976 114.614 154.219C114.371 154.462 114.042 154.599 113.699 154.599V154.599Z" fill="#78D98A"/>
<path d="M136.623 173.498H118.136C117.792 173.498 117.463 173.362 117.22 173.118C116.978 172.875 116.841 172.545 116.841 172.201C116.841 171.857 116.978 171.527 117.22 171.284C117.463 171.041 117.792 170.904 118.136 170.904H136.623C136.967 170.904 137.296 171.041 137.539 171.284C137.781 171.527 137.918 171.857 137.918 172.201C137.918 172.545 137.781 172.875 137.539 173.118C137.296 173.362 136.967 173.498 136.623 173.498V173.498Z" fill="white"/>
<path d="M47.8818 203.642V197.088H57.4954C58.0838 197.088 58.6481 196.854 59.0642 196.437C59.4802 196.02 59.714 195.455 59.714 194.865V187.765C59.714 187.176 59.4802 186.61 59.0642 186.193C58.6481 185.776 58.0838 185.542 57.4954 185.542H47.8818V183.42C47.8916 182.655 47.6125 181.914 47.1004 181.347C46.5884 180.78 45.8811 180.427 45.1206 180.36C44.7164 180.333 44.3111 180.39 43.9296 180.526C43.5481 180.663 43.1986 180.876 42.9029 181.154C42.6071 181.431 42.3713 181.766 42.2101 182.139C42.0488 182.511 41.9657 182.913 41.9656 183.319V185.542L2.17655 204.2C2.01383 204.276 1.8684 204.385 1.74921 204.519C1.63003 204.654 1.53964 204.811 1.48362 204.982C1.17022 205.939 0.511864 207.981 0.0640772 209.591C-0.00783807 209.853 -0.0174658 210.127 0.0359741 210.393C0.0894141 210.659 0.204428 210.908 0.371732 211.121C0.539036 211.334 0.75395 211.505 0.999145 211.62C1.24434 211.734 1.51295 211.789 1.78331 211.781C4.3475 211.702 6.03467 211.582 7.20564 211.549C7.4315 211.543 7.65389 211.492 7.86004 211.399L41.9656 197.088V215.188V239.544C41.9558 240.309 42.2349 241.05 42.747 241.617C43.259 242.185 43.9663 242.537 44.7268 242.604C45.131 242.631 45.5363 242.575 45.9178 242.438C46.2993 242.302 46.6488 242.088 46.9445 241.811C47.2403 241.534 47.4761 241.198 47.6373 240.826C47.7986 240.453 47.8818 240.052 47.8818 239.646V203.642H47.8818Z" fill="#3F3D56"/>
<path d="M32.4423 197.203L15.572 204.782C15.2588 204.923 14.9027 204.933 14.5819 204.811C14.2612 204.688 14.0021 204.443 13.8617 204.129C13.7213 203.815 13.7111 203.459 13.8333 203.137C13.9554 202.816 14.2 202.556 14.5132 202.415L31.3835 194.836C31.6967 194.695 32.0529 194.685 32.3736 194.807C32.6944 194.93 32.9534 195.175 33.0938 195.489C33.2342 195.803 33.2445 196.16 33.1223 196.481C33.0001 196.803 32.7555 197.062 32.4423 197.203V197.203Z" fill="white"/>
<path d="M258.529 136.825L250.819 137.609C250.47 141.579 251.16 145.572 252.823 149.192L250.509 170.786L250.544 170.786C250.316 171.18 250.199 171.629 250.207 172.085C250.215 172.541 250.347 172.986 250.588 173.372C250.829 173.759 251.171 174.072 251.577 174.278C251.983 174.484 252.437 174.576 252.89 174.542C253.344 174.509 253.78 174.353 254.151 174.09C254.523 173.827 254.816 173.468 254.999 173.05C255.182 172.633 255.248 172.174 255.19 171.721C255.131 171.269 254.951 170.842 254.669 170.485L259.81 151.217L258.529 136.825Z" fill="#A0616A"/>
<path d="M234.816 231.613L231.54 231.047L231.219 221.137L236.993 218.949L234.816 231.613Z" fill="#A0616A"/>
<path d="M234.343 235.058L224.268 233.318L224.29 233.191C224.47 232.149 225.054 231.22 225.916 230.61C226.778 230 227.847 229.758 228.887 229.938L228.887 229.938L230.968 228.856L234.161 230.848L235.04 231L234.343 235.058Z" fill="#2F2E41"/>
<path d="M267.682 224.752L264.845 226.488L256.812 216.347L260.999 213.785L267.682 224.752Z" fill="#A0616A"/>
<path d="M269.589 227.657L260.865 232.996L260.798 232.886C260.248 231.983 260.078 230.899 260.326 229.871C260.574 228.843 261.219 227.956 262.12 227.404L262.12 227.404L262.975 225.217L266.687 224.609L267.448 224.143L269.589 227.657Z" fill="#2F2E41"/>
<path d="M235.936 171.343L233.971 178.829C233.971 178.829 233.434 181.932 233.712 182.211C234.186 182.883 234.425 183.694 234.393 184.516C234.268 185.276 232.996 184.966 233.632 186.096C234.268 187.226 232.302 204.421 232.302 204.421L230.542 225.564L236.828 226.305C237.73 225.776 237.862 225.173 237.33 224.508C237.33 224.508 238.619 223.018 237.908 222.438C237.197 221.858 238.482 221.616 238.551 220.136L242.609 205.617L243.952 202.371L243.601 200.678L244.621 198.734L245.111 193.635L246.441 207.035L258.864 221.333L264.981 218.268L265.34 217.484C265.488 217.162 265.513 216.797 265.411 216.457C265.309 216.118 265.086 215.827 264.786 215.64V215.64L262.711 213.706C262.888 212.909 260.065 210.911 260.065 210.911L255.339 201.994L258.273 177.019C258.273 177.019 262.711 171.09 256.832 165.725C254.424 163.527 235.936 171.343 235.936 171.343Z" fill="#2F2E41"/>
<path d="M254.853 161.508C255.895 159.956 258.397 162.185 257.563 159.399C256.729 156.612 254.619 156.095 256.508 153.428L259.231 140.135C259.395 136.962 258.32 133.851 256.234 131.458L252.314 126.962L251.724 125.367L245.052 125.088L244.496 127.039C242.502 129.526 239.24 132.721 239.337 137.419C239.525 146.46 238.118 158.49 234.653 174.141C234.653 174.141 242.403 168.076 244.839 170.704C247.276 173.331 254.616 172.617 256.451 170.786C257.627 169.52 258.484 167.992 258.953 166.328C258.953 166.328 253.811 163.061 254.853 161.508Z" fill="#78D98A"/>
<path d="M259.066 172.053L243.853 167.754L233.87 172.572C238.34 164.236 241.059 150.357 240.2 138.567C239.994 136.061 240.485 133.548 241.619 131.305C242.991 128.658 245.138 126.787 248.29 126.991L252.357 126.621L254.946 128.103C258.691 132.035 260.164 137.902 259.581 143.307C258.938 149.272 258.137 156.519 257.976 157.166C257.881 157.547 258.181 158.214 258.498 158.921C259.033 160.114 259.699 161.598 258.774 162.525C258.494 162.774 258.268 163.078 258.112 163.418C257.956 163.759 257.872 164.128 257.866 164.503C257.89 164.836 257.982 165.161 258.136 165.457C258.291 165.753 258.506 166.014 258.766 166.222C259.948 167.246 259.126 171.736 259.09 171.926L259.066 172.053Z" fill="#2F2E41"/>
<path d="M251.305 142.529L243.662 141.25C242.281 144.987 241.897 149.021 242.55 152.953L234.642 173.173L234.675 173.182C234.352 173.502 234.122 173.905 234.009 174.347C233.897 174.788 233.907 175.252 234.038 175.689C234.17 176.125 234.417 176.517 234.754 176.823C235.091 177.129 235.505 177.338 235.952 177.425C236.398 177.513 236.86 177.477 237.287 177.322C237.715 177.166 238.092 176.897 238.378 176.543C238.664 176.188 238.848 175.763 238.911 175.311C238.974 174.86 238.913 174.4 238.734 173.98L248.758 156.751L251.305 142.529Z" fill="#A0616A"/>
<path d="M242.374 146.632L251.248 144.779L252.698 138.324C252.696 136.995 252.169 135.72 251.23 134.78C250.292 133.841 249.02 133.313 247.693 133.313C246.367 133.313 245.094 133.841 244.156 134.78C243.217 135.72 242.69 136.995 242.689 138.324C241.794 141.916 241.95 142.957 242.374 146.632Z" fill="#78D98A"/>
<path d="M248.11 124.253C251.949 124.253 255.061 121.134 255.061 117.286C255.061 113.439 251.949 110.32 248.11 110.32C244.271 110.32 241.159 113.439 241.159 117.286C241.159 121.134 244.271 124.253 248.11 124.253Z" fill="#A0616A"/>
<path d="M256.173 111.992C255.632 111.022 253.48 112.263 252.813 111.375C252.285 110.602 251.612 109.938 250.832 109.421C250.186 109.044 249.453 108.842 248.705 108.833C247.957 108.825 247.22 109.011 246.565 109.373C246.085 109.716 245.572 110.009 245.032 110.246C244.471 110.426 243.738 110.29 243.494 109.752C243.666 110.222 243.837 110.692 244.009 111.163C243.554 111.374 243.037 111.406 242.559 111.253C242.082 111.101 241.679 110.774 241.43 110.338C241.4 110.825 241.37 111.312 241.339 111.799C241.299 111.666 241.213 111.551 241.096 111.476C240.979 111.401 240.839 111.371 240.701 111.391C240.529 111.443 240.372 111.539 240.248 111.67C240.123 111.801 240.034 111.961 239.99 112.137C239.551 113.431 240.601 114.941 241.947 115.158C242.78 115.292 243.618 115.024 244.454 114.911C245.289 114.797 246.257 114.892 246.785 115.551C247.304 116.199 247.203 117.121 247.233 117.951C247.263 118.781 247.625 119.776 248.446 119.887C249.01 119.963 249.548 119.569 250.115 119.603C250.925 119.651 251.445 120.584 251.357 121.392C251.27 122.201 250.763 122.893 250.274 123.541C251.083 123.606 251.892 123.67 252.701 123.734L252.387 123.821C254.366 123.724 255.894 121.799 256.13 119.827C256.366 117.856 257.14 113.726 256.173 111.992Z" fill="#2F2E41"/>
</g>
<defs>
<clipPath id="clip0_7_31">
<rect width="293" height="283" fill="white"/>
</clipPath>
</defs>
</svg>
